<?xml version="1.0" encoding="UTF-8"?> <svg xmlns="http://www.w3.org/2000/svg" viewBox="0 0 1017.36 129.14"><defs><style>.cls-1{fill:#ffffff;}</style></defs><g id="Warstwa_2" data-name="Warstwa 2"><g id="Warstwa_1-2" data-name="Warstwa 1"><path class="cls-1" d="M430.33,32.29h14.22l-41.11,96.85H340.2A33.2,33.2,0,0,1,309.65,83l21.51-50.68H361.4L336.22,91.63a11.49,11.49,0,0,0,10.58,16h35.54L408.05,47A24.22,24.22,0,0,1,430.33,32.29Zm383.43,96.85H844l41.1-96.85H854.87ZM775,53.82h29.38a24.12,24.12,0,0,0,22.21-14.7l2.9-6.83H784.13L797.84,0H767.6L732.38,83a33.2,33.2,0,0,0,30.56,46.16h25.44l9.13-21.52h-28a11.5,11.5,0,0,1-10.58-16ZM141.08,0H120.39a24,24,0,0,0-17.84,7.94L28.22,90.49V0H0V129.13H24.8l0,0ZM590.4,0H565.6L449.33,129.13H470a24,24,0,0,0,17.83-7.93l74.33-82.55h0v90.5H590.4V0ZM56,129.13H75.54a24,24,0,0,0,17.83-7.93L139.9,69.52v59.62H168V38.32h0v-6H143.18ZM997.79,32.29A24,24,0,0,0,980,40.23L933.44,91.91V32.29H905.35v96.85h24.81l87.2-96.85Zm-325,0c-21.61,0-45.75,16-56.19,40.59L612.3,83a33.2,33.2,0,0,0,30.55,46.17H691l9.13-21.53H649.45a11.5,11.5,0,0,1-10.58-16l6.82-16a35.68,35.68,0,0,1,32.85-21.75h28.38a24.21,24.21,0,0,0,22.29-14.74l2.87-6.78Zm-422.73,0c-21.61,0-45.75,16-56.2,40.59L189.57,83a33.19,33.19,0,0,0,30.55,46.17h48.12l9.14-21.53H226.72a11.5,11.5,0,0,1-10.58-16l6.81-16a35.7,35.7,0,0,1,32.86-21.75h28.45a24.11,24.11,0,0,0,22.19-14.68l2.9-6.84Z"></path></g></g></svg> 